<?xml version="1.0" encoding="UTF-8" standalone="no"?>
        <svg 
    viewBox="8.203125 -74.51171875000001 442.4560546875 60.514322916666664"
    width="434.2529296875"
    height="135.02604166666666"
   xmlns="http://www.w3.org/2000/svg"
   xmlns:svg="http://www.w3.org/2000/svg">
   <path d="M70.61-0.29L70.61-0.29Q70.02 2.34 72.66 3.22L72.66 3.22Q88.48-6.15 103.42-16.70L103.42-16.70Q104.00-15.53 104.59-13.77L104.59-13.77Q113.67-10.84 123.34-9.38L123.34-9.38Q131.25-9.67 139.16-10.25L139.16-10.25Q141.80-11.72 140.33-14.06L140.33-14.06Q117.77-14.65 108.69-18.75L108.69-18.75Q108.40-17.58 108.40-16.41L108.40-16.41Q105.18-19.04 103.71-21.39L103.71-21.39Q86.43-11.13 70.61-0.29ZM78.52-106.64L78.52-106.64Q69.73-92.29 67.09-77.05L67.09-77.05Q69.14-78.22 70.90-80.27L70.90-80.27Q77.34-93.75 82.62-107.23L82.62-107.23Q80.27-109.28 78.52-106.64ZM65.33-111.91L65.33-111.91Q64.75-109.86 66.80-108.69L66.80-108.69Q84.38-112.79 100.78-112.21L100.78-112.21Q101.07-103.71 99.90-94.04L99.90-94.04Q97.85-90.23 96.39-86.13L96.39-86.13Q93.75-84.08 90.23-84.08L90.23-84.08Q92.29-80.27 96.97-81.45L96.97-81.45Q103.13-87.89 104.88-97.27L104.88-97.27Q105.47-106.93 105.76-116.60L105.76-116.60Q103.71-120.12 99.32-119.53L99.32-119.53Q81.45-117.48 65.33-111.91ZM22.56-121.88L22.56-121.88Q24.02-116.60 25.20-111.04L25.20-111.04Q15.53-109.86 9.67-104.88L9.67-104.88Q16.99-103.42 26.66-105.47L26.66-105.47Q29.88-98.44 30.47-89.65L30.47-89.65Q23.73-87.01 16.99-84.96L16.99-84.96Q14.65-86.13 13.18-87.01L13.18-87.01Q9.67-88.18 8.20-80.57L8.20-80.57Q12.89-68.85 18.75-57.42L18.75-57.42Q16.11-57.13 14.36-54.79L14.36-54.79Q14.06-52.44 16.11-51.56L16.11-51.56Q26.37-55.08 36.91-57.71L36.91-57.71Q38.67-54.79 38.38-50.39L38.38-50.39Q26.07-40.72 16.70-31.05L16.70-31.05Q18.46-30.47 20.80-30.47L20.80-30.47Q26.37-35.16 31.93-40.43L31.93-40.43Q36.33-41.31 40.43-38.67L40.43-38.67Q41.31-24.02 48.05-13.18L48.05-13.18Q50.10-13.77 51.27-15.53L51.27-15.53Q46.00-27.25 44.82-38.96L44.82-38.96Q60.35-38.67 74.41-41.89L74.41-41.89Q75-37.79 75.88-33.11L75.88-33.11Q76.76-32.23 78.22-32.52L78.22-32.52Q78.52-36.04 78.22-39.55L78.22-39.55Q97.85-43.07 114.84-47.17L114.84-47.17Q113.67-49.22 111.91-49.80L111.91-49.80Q95.21-50.10 80.57-43.95L80.57-43.95Q80.86-41.60 78.52-41.02L78.52-41.02Q76.76-46.58 75.88-52.44L75.88-52.44Q94.63-55.08 113.38-57.71L113.38-57.71Q113.67-60.06 112.50-60.94L112.50-60.94Q93.75-60.64 75.88-56.25L75.88-56.25Q73.54-61.23 73.54-66.21L73.54-66.21Q83.79-69.73 95.21-70.90L95.21-70.90Q103.71-71.48 112.21-70.90L112.21-70.90Q114.26-69.43 115.14-67.09L115.14-67.09Q116.89-52.44 115.43-36.04L115.43-36.04Q95.80-30.47 76.17-25.20L76.17-25.20Q73.24-23.44 71.48-21.39L71.48-21.39Q71.19-19.92 72.07-18.46L72.07-18.46Q82.91-21.39 93.16-25.49L93.16-25.49Q101.66-27.54 110.16-27.54L110.16-27.54Q107.23-24.90 105.18-22.85L105.18-22.85Q108.98-21.68 112.21-23.44L112.21-23.44Q115.72-30.47 119.24-36.91L119.24-36.91Q119.24-55.08 119.24-70.31L119.24-70.31Q116.60-75 112.21-76.76L112.21-76.76Q92.58-76.46 74.41-71.78L74.41-71.78Q73.54-76.76 72.36-80.27L72.36-80.27Q69.14-74.41 67.68-67.68L67.68-67.68Q72.07-59.47 73.83-48.63L73.83-48.63Q68.55-45.41 61.52-43.95L61.52-43.95Q52.73-43.65 43.95-43.65L43.95-43.65Q41.31-48.93 44.53-53.61L44.53-53.61Q40.72-54.49 41.60-58.30L41.60-58.30Q45.70-61.23 48.63-58.89L48.63-58.89Q46.58-57.13 44.82-55.66L44.82-55.66Q46.29-54.79 48.34-55.08L48.34-55.08Q51.56-58.89 55.96-61.82L55.96-61.82Q56.25-69.14 58.59-76.76L58.59-76.76Q56.25-71.78 51.27-65.92L51.27-65.92Q45.70-65.04 40.14-64.16L40.14-64.16Q37.79-74.71 36.04-84.96L36.04-84.96Q43.65-88.77 52.73-87.01L52.73-87.01Q54.79-82.91 55.96-78.22L55.96-78.22Q57.13-78.81 58.01-79.39L58.01-79.39Q59.18-85.84 56.84-91.11L56.84-91.11Q45.12-93.46 34.57-91.11L34.57-91.11Q33.40-100.20 31.64-106.35L31.64-106.35Q40.14-106.05 46.88-110.16L46.88-110.16Q46.88-112.79 45.12-113.38L45.12-113.38Q37.21-111.91 29.88-112.21L29.88-112.21Q28.71-118.07 26.07-123.05L26.07-123.05Q23.73-123.63 22.56-121.88ZM31.05-83.50L31.05-83.50Q34.86-74.12 36.33-63.28L36.33-63.28Q29.59-60.94 22.85-58.89L22.85-58.89Q16.70-68.55 12.89-79.69L12.89-79.69Q22.27-81.45 31.05-83.50ZM221.78-50.98L221.78-50.98Q216.80-43.36 215.63-33.98L215.63-33.98Q229.39-39.26 246.09-38.38L246.09-38.38Q244.04-29.88 238.77-22.85L238.77-22.85Q229.69-24.32 220.02-25.49L220.02-25.49Q218.85-24.61 218.85-22.85L218.85-22.85Q213.57-23.73 208.30-22.85L208.30-22.85Q204.20-21.39 205.66-18.16L205.66-18.16Q220.02-18.16 234.08-16.99L234.08-16.99Q229.98-6.15 220.61 2.34L220.61 2.34Q217.68 2.64 215.63 3.81L215.63 3.81Q216.80 7.91 221.78 6.74L221.78 6.74Q232.62-3.52 239.65-15.53L239.65-15.53Q263.96-10.84 286.82-6.45L286.82-6.45Q287.11-9.38 285.64-11.13L285.64-11.13Q263.38-16.41 244.04-23.14L244.04-23.14Q247.27-27.25 244.04-28.71L244.04-28.71Q245.51-31.05 246.97-28.42L246.97-28.42Q250.78-36.91 252.25-44.24L252.25-44.24Q234.96-44.53 220.90-38.96L220.90-38.96Q223.83-47.17 228.81-53.32L228.81-53.32Q227.64-54.79 226.76-55.37L226.76-55.37Q224.12-53.61 221.78-50.98ZM230.86-66.21L230.86-66.21Q230.86-62.70 233.79-60.64L233.79-60.64Q238.48-59.18 244.63-58.89L244.63-58.89Q250.20-60.06 254.00-63.57L254.00-63.57Q254.30-66.21 252.54-67.09L252.54-67.09Q248.44-65.33 244.34-63.87L244.34-63.87Q239.65-63.28 235.84-65.92L235.84-65.92Q235.25-69.73 238.77-71.48L238.77-71.48Q238.77-73.54 237.01-74.71L237.01-74.71Q232.62-71.78 230.86-66.21ZM232.62-96.68L232.62-96.68Q242.87-89.06 254.30-82.03L254.30-82.03Q258.40-82.03 257.23-85.84L257.23-85.84Q244.63-93.46 234.96-101.95L234.96-101.95Q231.45-101.37 232.62-96.68ZM210.06-106.64L210.06-106.64Q212.11-98.73 212.11-89.94L212.11-89.94Q208.59-81.45 209.47-73.24L209.47-73.24Q215.04-73.83 220.90-73.54L220.90-73.54Q216.50-62.99 212.11-51.86L212.11-51.86Q212.99-49.80 215.33-50.10L215.33-50.10Q221.19-64.16 229.10-75.88L229.10-75.88Q234.67-77.64 240.82-78.81L240.82-78.81Q244.04-81.15 246.39-84.38L246.39-84.38L245.21-86.13Q240.53-83.50 235.55-82.62L235.55-82.62Q234.08-83.79 234.38-85.55L234.38-85.55Q231.45-84.67 229.98-81.15L229.98-81.15Q222.66-79.10 214.75-78.22L214.75-78.22Q215.33-86.72 217.09-95.51L217.09-95.51Q215.63-103.13 214.45-109.28L214.45-109.28Q210.94-109.86 210.06-106.64ZM181.05-124.22L181.05-124.22Q177.54-113.38 176.07-101.37L176.07-101.37Q171.09-87.89 163.18-75.59L163.18-75.59Q163.18-73.83 164.65-72.36L164.65-72.36Q166.70-72.07 168.16-73.54L168.16-73.54Q171.09-79.39 174.32-84.67L174.32-84.67Q181.93-63.28 185.16-38.67L185.16-38.67Q184.86-31.05 185.45-23.14L185.45-23.14Q187.50-18.16 188.67-12.89L188.67-12.89Q190.14-11.43 192.77-11.72L192.77-11.72Q190.72-29.30 189.26-47.17L189.26-47.17Q186.04-67.68 178.71-87.30L178.71-87.30Q178.13-92.29 178.71-96.97L178.71-96.97Q183.98-111.33 186.62-126.56L186.62-126.56Q183.40-128.03 181.05-124.22ZM346.88-50.10L346.88-50.10Q347.46-46.58 348.05-42.48L348.05-42.48Q339.84-41.02 331.64-41.60L331.64-41.60Q329.88-38.96 331.64-36.91L331.64-36.91Q340.14-36.62 348.93-36.91L348.93-36.91Q352.44-27.83 353.91-16.99L353.91-16.99Q351.27-15.82 348.05-16.11L348.05-16.11Q350.39-19.04 349.51-23.44L349.51-23.44Q338.96-12.30 331.64 2.05L331.64 2.05Q331.64 4.69 334.57 4.69L334.57 4.69Q340.72-2.34 345.12-11.43L345.12-11.43Q349.80-11.72 354.20-10.84L354.20-10.84Q355.37-2.93 353.91 4.69L353.91 4.69Q355.96 7.91 358.30 5.27L358.30 5.27Q359.47-3.81 358.30-11.43L358.30-11.43Q365.04-14.06 372.66-17.58L372.66-17.58Q373.54-19.04 373.54-20.80L373.54-20.80Q366.21-19.63 358.59-17.29L358.59-17.29Q355.96-26.66 353.91-36.04L353.91-36.04Q362.11-36.91 368.85-39.84L368.85-39.84Q368.55-43.65 365.04-44.82L365.04-44.82Q364.75-43.95 363.87-42.48L363.87-42.48Q358.89-42.19 353.91-42.19L353.91-42.19Q350.98-48.34 349.51-53.91L349.51-53.91Q350.68-58.01 346.88-50.10ZM389.65-60.06L389.65-60.06Q389.65-53.91 391.99-46.29L391.99-46.29Q379.39-44.53 370.31-40.43L370.31-40.43Q369.73-38.38 371.48-36.91L371.48-36.91Q382.03-38.96 393.16-39.84L393.16-39.84Q394.92-36.04 394.63-30.76L394.63-30.76Q384.96-19.63 375.59-7.32L375.59-7.32Q372.36-4.39 368.55-3.81L368.55-3.81Q367.68-1.76 370.02-0.29L370.02-0.29Q374.12-0.88 377.93-3.22L377.93-3.22Q387.30-14.36 395.80-25.49L395.80-25.49Q397.85-16.41 397.85-5.86L397.85-5.86Q399.90-3.22 401.95-4.98L401.95-4.98Q401.66-14.65 401.07-23.44L401.07-23.44Q405.47-21.39 411.33-19.34L411.33-19.34L422.75-19.34Q433.30-21.39 442.38-26.37L442.38-26.37Q442.68-27.83 441.80-28.71L441.80-28.71Q426.86-26.07 411.91-23.73L411.91-23.73Q408.69-25.78 404.88-25.49L404.88-25.49Q402.25-29.00 398.73-31.64L398.73-31.64Q398.44-36.33 397.56-40.14L397.56-40.14Q402.54-43.07 408.98-43.36L408.98-43.36Q411.62-44.82 411.91-47.75L411.91-47.75Q410.45-50.10 407.81-49.51L407.81-49.51Q403.71-46.29 397.27-46.58L397.27-46.58Q395.51-53.91 393.16-60.35L393.16-60.35Q391.11-60.64 389.65-60.06ZM328.42-79.10L328.42-79.10Q327.25-77.34 329.00-75.88L329.00-75.88Q340.72-75.59 351.27-78.22L351.27-78.22Q351.27-80.86 348.93-81.45L348.93-81.45Q338.09-81.74 328.42-79.10ZM350.39-111.33L350.39-111.33Q350.10-104.30 353.03-96.97L353.03-96.97Q336.04-94.04 319.04-92.29L319.04-92.29Q316.70-97.56 314.94-101.37L314.94-101.37Q312.60-100.20 310.55-99.02L310.55-99.02Q309.96-96.68 313.18-94.92L313.18-94.92Q312.89-91.11 312.30-87.30L312.30-87.30Q313.48-86.43 314.65-87.30L314.65-87.30Q318.16-78.22 319.92-66.80L319.92-66.80Q321.39-63.87 324.32-64.75L324.32-64.75Q323.14-75.88 319.92-86.43L319.92-86.43Q336.33-90.23 353.91-91.11L353.91-91.11Q357.71-79.98 358.59-67.38L358.59-67.38Q351.86-63.57 344.24-61.23L344.24-61.23Q338.09-60.64 333.40-62.11L333.40-62.11Q330.76-60.64 331.05-57.71L331.05-57.71Q338.38-55.08 346.88-57.13L346.88-57.13Q353.91-62.11 361.23-62.40L361.23-62.40Q361.82-64.75 363.28-65.92L363.28-65.92Q374.41-66.50 384.08-70.90L384.08-70.90Q384.38-72.66 383.50-73.54L383.50-73.54Q372.66-72.07 362.11-71.19L362.11-71.19Q360.35-72.66 360.35-74.71L360.35-74.71Q370.61-81.45 384.08-82.91L384.08-82.91Q385.55-84.38 384.08-85.55L384.08-85.55Q371.19-85.25 360.64-80.57L360.64-80.57Q358.59-85.55 358.30-90.82L358.30-90.82Q379.10-94.34 400.78-92.29L400.78-92.29Q399.61-86.13 401.37-80.86L401.37-80.86Q399.32-75.88 396.09-73.24L396.09-73.24Q398.73-72.66 401.66-73.54L401.66-73.54Q405.47-85.25 406.64-96.97L406.64-96.97Q382.91-99.90 357.42-96.97L357.42-96.97Q353.32-106.05 354.79-113.96L354.79-113.96Q352.15-113.67 350.39-111.33ZM332.23-123.63L332.23-123.63Q320.80-119.82 308.79-117.77L308.79-117.77Q307.32-116.60 307.91-114.55L307.91-114.55Q311.43-112.79 316.41-113.38L316.41-113.38Q336.33-119.53 358.30-121.29L358.30-121.29Q372.36-122.75 385.55-120.12L385.55-120.12Q383.50-118.95 383.50-116.31L383.50-116.31Q388.48-117.48 391.99-122.17L391.99-122.17Q392.29-124.80 389.94-126.27L389.94-126.27Q382.91-127.15 376.46-128.03L376.46-128.03Q353.91-126.86 332.23-123.63Z"/>
    </svg>
        