<svg width="249" height="249" version="1.1" xmlns="http://www.w3.org/2000/svg" xmlns:xlink="http://www.w3.org/1999/xlink"><path d="M186.50 82.00L186.50 82.00Q181.27 82.00 176.54 76.27L176.54 76.27Q173.55 72.54 171.06 70.79L171.06 70.79Q135.71 77.77 124.00 81.75L124.00 81.75Q112.05 85.73 102.59 91.46L102.59 91.46Q93.38 86.48 92.13 81.25L92.13 81.25Q92.63 77.27 99.60 72.29L99.60 72.29Q103.58 69.30 104.83 67.81L104.83 67.81Q125.25 43.90 125.25 23.48L125.25 23.48Q124.50 21.74 124.50 17.76L124.50 17.76Q127.24 12.53 140.19 20.50L140.19 20.50Q144.67 23.24 145.91 25.23L145.91 25.23L145.66 28.46Q132.72 44.40 115.29 70.79L115.29 70.79L116.03 73.28Q141.93 68.55 166.33 65.32L166.33 65.32L156.87 54.36L157.37 51.37Q165.83 51.37 178.03 59.34L178.03 59.34Q185.75 64.32 187.75 68.80L187.75 68.80L188.00 70.30Q188.49 72.29 188.49 76.52L188.49 76.52Q188.49 80.51 186.50 82.00ZM190.24 114.87L190.24 114.87Q189.24 117.36 184.01 116.86L184.01 116.86Q161.85 103.41 161.35 103.16L161.35 103.16Q157.87 100.67 155.63 98.68L155.63 98.68Q154.13 97.44 154.13 93.70L154.13 93.70Q158.36 90.96 175.54 96.44L175.54 96.44Q182.27 98.68 184.51 100.18L184.51 100.18Q190.24 104.41 190.24 114.87ZM220.12 208.24L223.10 209.24Q220.86 213.47 191.23 213.72L191.23 213.72Q183.76 213.72 181.77 213.47L181.77 213.47Q171.06 211.23 145.42 182.35L145.42 182.35Q120.27 205.25 92.88 203.76L92.88 203.76L89.89 203.26L88.15 202.02L88.15 201.27Q122.01 191.81 138.69 174.88L138.69 174.88Q125.75 160.93 123.50 159.19L123.50 159.19Q118.77 154.96 114.04 152.22L114.04 152.22Q97.61 169.40 93.38 172.88L93.38 172.88Q80.68 183.59 68.72 186.33L68.72 186.33L68.23 185.83L94.37 158.69Q115.29 135.78 118.28 120.59L118.28 120.59L119.52 115.37Q119.77 114.37 120.77 113.87L120.77 113.87Q132.97 113.87 136.70 117.86L136.70 117.86Q136.70 121.34 132.72 126.57L132.72 126.57Q130.48 129.31 129.73 131.55L129.73 131.55Q143.67 130.06 161.10 123.83L161.10 123.83Q170.07 123.83 177.79 130.80L177.79 130.80Q177.79 133.79 172.56 139.02L172.56 139.02Q170.56 141.01 169.57 142.51L169.57 142.51L154.38 171.14Q152.64 173.88 151.14 176.12L151.14 176.12Q168.82 191.81 187.25 198.28L187.25 198.28L220.12 208.24ZM156.12 136.28L156.12 136.28Q155.13 134.04 151.39 134.04L151.39 134.04Q135.95 139.77 127.99 138.77L127.99 138.77L125.00 138.27L118.03 147.24L117.78 147.49Q124.25 149.48 133.22 159.44L133.22 159.44Q139.44 166.16 143.42 168.65L143.42 168.65Q153.13 153.71 156.12 136.28ZM114.79 106.90L114.79 109.64L99.60 125.08Q87.15 136.03 75.45 136.53L75.45 136.53L75.70 134.79Q100.35 116.36 100.60 98.43L100.60 98.43Q101.84 97.19 105.33 98.43L105.33 98.43Q111.05 101.42 114.79 106.90L114.79 106.90ZM50.80 87.48L50.80 87.48L59.26 95.94Q61.50 98.93 62.50 101.67L62.50 101.67Q60.26 121.34 59.26 178.11L59.26 178.11Q59.26 197.78 55.03 205.50L55.03 205.50Q53.04 209.24 50.05 207.25L50.05 207.25Q38.84 199.53 44.32 172.39L44.32 172.39L49.05 150.23Q51.79 126.07 48.80 110.14L48.80 110.14Q47.31 101.92 44.32 95.20L44.32 95.20Q12.45 133.54 5.98 129.31L5.98 129.31L6.97 126.07Q53.53 70.30 62.25 40.67L62.25 40.67Q63.25 37.18 60.76 28.71L60.76 28.71Q60.01 26.22 60.01 24.23L60.01 24.23Q65.74 21.49 75.70 27.97L75.70 27.97Q83.42 32.95 83.42 37.68L83.42 37.68Q83.42 40.67 77.19 47.64L77.19 47.64Q75.20 50.13 74.20 51.37L74.20 51.37Q59.76 75.28 50.80 87.48Z" stroke="#000" fill="black" /></svg>