<svg width="249" height="249" version="1.1" xmlns="http://www.w3.org/2000/svg" xmlns:xlink="http://www.w3.org/1999/xlink"><path d="M203.43 23.41L203.43 23.41Q203.43 25.15 200.69 28.88L200.69 28.88L199.45 30.88L191.23 53.04Q186.75 62.25 179.03 67.23L179.03 67.23Q176.54 67.23 174.30 64.49L174.30 64.49Q173.55 62.75 168.07 56.03L168.07 56.03Q166.08 53.29 165.09 51.29L165.09 51.29L175.30 52.29L175.54 52.29Q184.76 52.29 186.50 36.60L186.50 36.60Q187.00 31.37 186.25 27.14L186.25 27.14Q182.02 23.66 158.61 30.13L158.61 30.13L153.38 31.87L158.36 37.10Q159.11 38.59 159.11 39.84L159.11 39.84Q158.61 46.81 142.18 61.50L142.18 61.50L132.97 68.72L128.48 71.46L126.99 71.46L127.24 69.97Q140.93 54.28 144.42 46.56L144.42 46.56Q147.41 39.84 147.16 33.86L147.16 33.86L133.22 35.86L132.97 35.86Q126.24 32.62 124.50 30.38L124.50 30.38L126.49 28.39Q161.35 25.90 186.00 15.69L186.00 15.69Q193.97 15.69 203.43 23.41ZM203.18 79.18L203.18 79.18Q203.18 80.43 200.69 85.16L200.69 85.16Q200.44 86.15 200.20 86.90L200.20 86.90Q197.21 95.86 198.70 119.77L198.70 119.77L199.20 135.95Q198.45 150.15 191.23 155.87L191.23 155.87Q188.49 155.63 185.75 150.64L185.75 150.64Q184.51 148.40 183.51 147.41L183.51 147.41Q158.12 149.15 137.20 152.39L137.20 152.39Q135.46 156.37 134.21 157.37L134.21 157.37Q128.48 156.87 126.24 147.66L126.24 147.66Q125.99 146.41 125.99 145.66L125.99 145.66Q125.75 142.93 127.74 129.98L127.74 129.98Q128.48 123.25 128.48 109.81L128.48 109.81Q128.48 92.88 125.00 83.17L125.00 83.17Q123.50 77.94 123.50 77.69L123.50 77.69Q126.99 74.95 134.96 80.43L134.96 80.43Q157.87 76.94 168.57 73.45L168.57 73.45L179.28 69.22Q188.00 66.48 201.44 77.69L201.44 77.69Q202.19 78.19 203.18 79.18ZM184.01 85.66L184.01 85.66L182.02 79.68Q180.53 77.94 177.79 77.69L177.79 77.69Q174.30 77.44 151.89 83.42L151.89 83.42Q142.68 85.91 138.69 86.15L138.69 86.15L137.95 102.09L157.12 96.36Q169.32 93.87 174.05 98.85L174.05 98.85Q175.79 100.60 174.80 102.09L174.80 102.09Q174.30 102.59 173.30 103.33L173.30 103.33Q171.81 104.33 137.95 107.57L137.95 107.57L137.95 122.51L157.87 116.78Q161.10 116.03 163.84 116.03L163.84 116.03Q168.57 116.03 174.55 119.27L174.55 119.27Q179.53 121.51 175.79 123.75L175.79 123.75Q169.07 125.00 138.44 128.48L138.44 128.48L138.44 144.67L166.83 139.19Q180.03 137.45 183.26 141.68L183.26 141.68Q185.75 123.01 184.51 94.37L184.51 94.37Q184.26 90.64 184.01 85.66ZM208.91 205.92L208.91 205.92Q205.67 205.92 203.18 203.18L203.18 203.18Q198.45 197.71 174.80 167.83L174.80 167.83Q173.80 163.34 175.30 162.10L175.30 162.10L196.71 174.05Q212.65 184.51 212.65 198.95L212.65 198.95Q212.65 203.93 208.91 205.92ZM107.57 146.91L104.58 146.16L87.90 130.72Q86.65 129.48 86.65 126.74L86.65 126.74Q87.40 126.24 92.13 126.24L92.13 126.24L104.08 130.72Q108.31 132.97 110.06 136.20L110.06 136.20Q111.55 139.19 110.56 143.42L110.56 143.42Q109.81 146.91 107.57 146.91L107.57 146.91ZM118.52 75.70L118.52 75.70Q118.52 78.44 113.54 83.91L113.54 83.91Q111.80 85.91 110.80 87.40L110.80 87.40Q107.07 93.38 105.83 98.60L105.83 98.60L109.56 101.59Q110.31 102.59 110.31 103.58L110.31 103.58L109.31 104.83Q105.33 105.33 80.43 109.06L80.43 109.06L79.68 109.81L79.43 194.22Q79.43 199.45 73.95 204.43L73.95 204.43Q73.21 205.18 72.46 205.67L72.46 205.67Q67.98 202.19 64.74 190.73L64.74 190.73Q62.75 183.51 66.23 170.81L66.23 170.81Q67.98 165.09 68.23 161.60L68.23 161.60Q70.72 140.69 69.72 129.98L69.72 129.98Q58.52 150.64 32.37 171.31L32.37 171.31Q29.88 173.30 27.14 175.30L27.14 175.30Q20.17 181.02 16.43 178.78L16.43 178.78Q45.82 146.66 56.77 130.72L56.77 130.72Q63.49 121.01 68.23 111.80L68.23 111.80Q62.50 112.05 50.55 115.54L50.55 115.54L49.80 118.77Q46.56 118.77 43.33 114.79L43.33 114.79L36.10 93.13Q33.62 86.90 30.63 82.42L30.63 82.42Q30.13 76.94 39.84 79.93L39.84 79.93Q41.33 80.43 42.58 80.92L42.58 80.92Q60.01 78.19 70.97 75.20L70.97 75.20L70.97 56.03L51.79 58.27Q44.82 58.27 40.34 54.28L40.34 54.28L42.08 52.54Q60.76 48.80 70.72 45.82L70.72 45.82Q70.72 37.10 63.99 21.16L63.99 21.16Q62.00 16.43 62.00 14.69L62.00 14.69Q63.74 13.20 69.47 13.20L69.47 13.20Q84.91 22.91 85.91 24.65L85.91 24.65Q86.40 25.65 84.66 29.38L84.66 29.38Q82.42 34.61 82.42 41.58L82.42 41.58Q88.39 37.60 97.61 39.84L97.61 39.84Q100.10 40.59 102.84 41.83L102.84 41.83Q103.83 42.83 103.83 45.57L103.83 45.57Q100.10 48.31 88.39 51.04L88.39 51.04L80.92 53.29Q80.18 56.52 80.18 72.21L80.18 72.21Q82.92 71.96 92.88 68.23L92.88 68.23Q99.85 65.49 105.83 67.23L105.83 67.23Q115.29 69.72 118.52 75.70ZM99.35 81.67L99.35 78.68L97.86 76.94Q93.62 75.94 83.91 78.44L83.91 78.44Q81.92 78.93 80.43 79.18L80.43 79.18L80.18 101.59L95.86 97.86L99.35 81.67ZM70.72 104.08L70.97 81.67Q66.23 82.67 47.06 87.40L47.06 87.40L50.30 108.31L70.72 104.08ZM155.87 165.34L155.87 165.34L155.13 168.32Q135.71 186.75 127.49 192.48L127.49 192.48Q112.05 203.18 100.35 202.19L100.35 202.19L100.35 201.44Q128.24 181.27 137.70 165.34L137.70 165.34Q139.44 162.35 140.69 159.11L140.69 159.11Q151.89 159.61 155.87 165.34Z" stroke="#000" fill="black" /></svg>