<svg width="249" height="249" version="1.1" xmlns="http://www.w3.org/2000/svg" xmlns:xlink="http://www.w3.org/1999/xlink"><path d="M144.67 82.54L144.67 82.54Q136.70 81.05 123.01 72.58L123.01 72.58L123.01 69.35Q130.48 67.85 136.95 69.10L136.95 69.10Q145.17 70.84 147.41 76.32L147.41 76.32Q148.16 78.56 147.16 80.55L147.16 80.55Q146.41 82.29 144.67 82.54ZM194.72 62.87L194.72 62.87Q194.72 64.86 190.48 66.61L190.48 66.61Q169.57 74.08 161.10 79.56L161.10 79.56L157.87 79.56L157.87 76.82Q158.86 74.82 164.84 59.88L164.84 59.88Q164.84 59.39 165.09 58.89L165.09 58.89Q161.85 52.41 119.77 60.38L119.77 60.38Q114.29 61.63 112.55 61.63L112.55 61.63L111.80 62.37L110.31 94.25Q109.31 103.46 106.07 109.68L106.07 109.68L103.09 109.93L102.59 109.93Q95.62 103.71 98.60 87.27L98.60 87.27Q100.35 76.07 100.35 74.08L100.35 74.08L100.84 64.37Q89.14 65.36 74.70 69.60L74.70 69.60Q63.25 73.33 62.50 73.33L62.50 73.33L52.79 73.08Q51.29 73.08 50.55 72.58L50.55 72.58L42.83 91.01Q37.85 100.97 34.11 100.72L34.11 100.72Q28.64 96.74 28.64 83.29L28.64 83.29Q39.09 72.58 40.84 65.86L40.84 65.86Q41.09 65.11 41.33 64.12L41.33 64.12L42.08 58.14Q42.58 56.90 45.07 56.90L45.07 56.90Q47.31 57.15 49.55 62.37L49.55 62.37Q51.54 67.35 54.53 66.61L54.53 66.61Q55.28 66.36 56.52 65.61L56.52 65.61L100.84 58.14Q99.60 47.43 97.36 40.71L97.36 40.71Q89.89 41.71 84.41 40.46L84.41 40.46L78.68 37.97Q77.44 37.23 76.19 36.23L76.19 36.23Q76.44 34.24 79.68 33.74L79.68 33.74L105.83 29.26L106.07 29.26L128.48 23.28Q130.97 22.78 133.22 22.53L133.22 22.53Q136.95 22.04 140.93 23.53L140.93 23.53Q143.92 24.53 145.42 26.52L145.42 26.52Q145.42 29.76 143.18 30.25L143.18 30.25L106.07 38.72L112.55 42.95Q113.79 44.20 114.04 45.69L114.04 45.69L112.55 55.90L159.11 48.68Q170.81 47.19 174.80 48.43L174.80 48.43Q179.78 49.68 194.72 62.87ZM146.66 98.48L146.66 98.48Q146.66 103.46 144.42 104.21L144.42 104.21Q135.21 103.71 123.01 94.50L123.01 94.50Q122.51 91.51 123.25 91.01L123.25 91.01Q128.98 87.52 139.44 92.50L139.44 92.50Q144.92 95.24 146.66 98.48ZM62.75 81.30L62.75 81.30Q63.25 76.82 74.95 78.56L74.95 78.56Q80.43 79.06 81.67 80.55L81.67 80.55Q84.16 83.54 85.16 86.53L85.16 86.53Q86.40 92.01 78.68 90.01L78.68 90.01Q69.72 87.52 63.74 82.05L63.74 82.05Q63.00 81.55 62.75 81.30ZM214.14 205.05L214.14 205.05L212.65 206.05Q201.94 207.04 182.77 208.29L182.77 208.29Q176.04 208.79 149.65 166.71L149.65 166.71Q143.18 156.25 140.44 151.52L140.44 151.52Q140.19 162.72 140.19 202.31L140.19 202.31Q140.19 219.24 139.44 223.23L139.44 223.23Q137.95 231.45 133.22 233.69L133.22 233.69Q125.25 227.96 128.24 202.81L128.24 202.81Q129.98 188.62 129.98 160.23L129.98 160.23Q111.30 191.61 90.89 202.06L90.89 202.06L87.65 202.06L87.65 200.32Q115.54 172.43 124.75 150.52L124.75 150.52Q125.99 147.03 127.24 143.80L127.24 143.80Q125.75 143.80 115.54 146.04L115.54 146.04Q107.57 147.78 103.09 144.54L103.09 144.54Q101.09 142.80 101.09 141.31L101.09 141.31L129.73 134.58Q129.73 118.65 125.00 112.17L125.00 112.17Q124.50 111.43 124.00 110.93L124.00 110.93Q123.25 101.22 144.42 116.66L144.42 116.66L140.93 131.85Q158.86 127.86 162.10 127.86L162.10 127.86Q171.06 127.11 176.29 130.60L176.29 130.60Q178.78 132.09 178.78 134.83L178.78 134.83L176.54 136.33Q150.65 138.57 145.42 139.56L145.42 139.56L141.43 140.56Q168.57 178.91 198.45 194.84L198.45 194.84Q209.41 200.57 210.41 201.32L210.41 201.32Q212.65 203.06 214.14 205.05ZM67.73 108.94L67.73 108.94L61.25 103.46Q60.01 101.72 60.01 99.72L60.01 99.72Q72.21 99.72 75.70 100.97L75.70 100.97Q79.43 102.46 81.17 105.70L81.17 105.70Q83.66 110.18 82.17 112.42L82.17 112.42Q81.17 113.67 78.44 113.67L78.44 113.67Q76.19 113.67 70.97 110.43L70.97 110.43Q68.97 109.19 67.73 108.94ZM74.20 168.70L73.21 167.70Q72.71 171.93 71.96 197.08L71.96 197.08Q71.71 209.53 69.72 217.75L69.72 217.75Q65.24 226.71 61.25 218.25L61.25 218.25Q57.52 210.03 59.01 202.06L59.01 202.06Q59.51 199.82 60.51 198.58L60.51 198.58Q62.50 180.65 62.50 164.96L62.50 164.96Q54.53 178.16 38.35 194.34L38.35 194.34Q22.41 210.28 14.94 210.53L14.94 210.53L14.94 209.28Q45.32 177.16 57.77 154.50L57.77 154.50L36.35 157.49Q26.64 157.99 23.66 153.51L23.66 153.51L26.39 151.52L62.50 144.05Q62.50 129.85 58.52 123.63L58.52 123.63Q58.52 121.89 61.25 120.89L61.25 120.89Q66.23 121.39 74.95 128.36L74.95 128.36L76.94 129.85L74.70 138.82L74.70 139.07Q85.66 138.07 87.90 138.32L87.90 138.32Q88.89 138.57 89.64 138.82L89.64 138.82Q104.33 143.30 77.94 149.77L77.94 149.77L73.45 150.77L73.21 161.97L86.15 165.21Q91.88 167.20 94.62 171.44L94.62 171.44Q96.11 177.16 96.11 177.91L96.11 177.91Q96.11 188.37 74.20 168.70L74.20 168.70Z" stroke="#000" fill="black" /></svg>